<?xml version="1.0" encoding="UTF-8" standalone="no"?>
<!-- Created with Inkscape (http://www.inkscape.org/) -->

<svg
   width="64"
   height="64"
   version="1.1"
   viewBox="0 0 64 64"
   id="svg7"
   sodipodi:docname="moeglichdev_icon.svg"
   inkscape:version="1.3.2 (091e20ef0f, 2023-11-25, custom)"
   xmlns:inkscape="http://www.inkscape.org/namespaces/inkscape"
   xmlns:sodipodi="http://sodipodi.sourceforge.net/DTD/sodipodi-0.dtd"
   xmlns="http://www.w3.org/2000/svg"
   xmlns:svg="http://www.w3.org/2000/svg">
  <sodipodi:namedview
     id="namedview7"
     pagecolor="#ffffff"
     bordercolor="#000000"
     borderopacity="0.25"
     inkscape:showpageshadow="2"
     inkscape:pageopacity="0.0"
     inkscape:pagecheckerboard="0"
     inkscape:deskcolor="#d1d1d1"
     inkscape:zoom="5.5625"
     inkscape:cx="23.191011"
     inkscape:cy="17.078652"
     inkscape:window-width="1920"
     inkscape:window-height="1008"
     inkscape:window-x="1920"
     inkscape:window-y="0"
     inkscape:window-maximized="1"
     inkscape:current-layer="svg7" />
  <defs
     id="defs2">
    <radialGradient
       id="radialGradient12"
       cx="53.27532"
       cy="23.87438"
       r="10.286475"
       gradientTransform="matrix(1 0 0 .99578053 0 .10073729)"
       gradientUnits="userSpaceOnUse">
      <stop
         offset="0"
         id="stop1" />
      <stop
         stop-opacity="0"
         offset="1"
         id="stop2" />
    </radialGradient>
  </defs>
  <g
     fill="#ff5959"
     stroke-linecap="square"
     aria-label="m.d"
     id="g7">
    <path
       d="m6.1551217 30.558799v-23.6924265h6.4308013l1.740668 5.0769485-3.33628-0.435169q1.160445-1.305499 2.756057-2.5142965 1.643964-1.208797 3.57804-1.982427 1.982427-0.821983 4.158263-0.821983 2.224187 0 3.626392 0.821983 1.450556 0.77363 2.224186 2.127482 0.821982 1.3538535 1.160446 3.0945215 0.338462 1.740669 0.338462 3.626391v14.698976h-8.751691v-13.200066q0-1.643964-0.435167-2.127483-0.386816-0.483519-1.112094-0.483519-0.967038 0-1.982427 0.53187-1.01539 0.483519-2.369243 1.498908l-2.175835-4.254965h2.901113v18.035255zm27.8023353 0v-13.200066q0-1.643964-0.386814-2.127483-0.386816-0.483519-1.112094-0.483519-0.967038 0-1.982427 0.53187-1.015389 0.483519-2.369243 1.498908l-3.191224-5.270357q1.160445-1.305499 2.756057-2.5142965 1.643964-1.208797 3.57804-1.982427 1.982427-0.821983 4.10991-0.821983 2.224187 0 3.674745 0.821983 1.450556 0.77363 2.224186 2.127482 0.821982 1.3538535 1.160446 3.0945215 0.338462 1.740669 0.338462 3.626391v14.698976z"
       fill="#265fff"
       fill-opacity=".33189654"
       stroke="#fffc59"
       stroke-width=".7"
       id="path2"
       style="stroke:#ff5959;stroke-opacity:1" />
    <path
       d="m4.7589529 28.900848v-23.6924259h6.4308011l1.740668 5.0769479-3.3362802-0.4351682q1.1604452-1.3054997 2.7560572-2.5142967 1.643964-1.208797 3.57804-1.982427 1.982427-0.821983 4.158263-0.821983 2.224187 0 3.626392 0.821983 1.450556 0.77363 2.224186 2.127482 0.821982 1.353853 1.160446 3.0945209 0.338462 1.740669 0.338462 3.626391v14.698976h-8.751691v-13.200066q0-1.643964-0.435167-2.127483-0.386816-0.483519-1.112094-0.483519-0.967038 0-1.982427 0.53187-1.01539 0.483519-2.369243 1.498908l-2.175835-4.254965h2.901113v18.035255zm27.8023351 0v-13.200066q0-1.643964-0.386814-2.127483-0.386816-0.483519-1.112094-0.483519-0.967038 0-1.982427 0.53187-1.015389 0.483519-2.369243 1.498908l-3.191224-5.2703562q1.160445-1.3054997 2.756057-2.5142967 1.643964-1.208797 3.57804-1.982427 1.982427-0.821983 4.10991-0.821983 2.224187 0 3.674745 0.821983 1.450556 0.77363 2.224186 2.127482 0.821982 1.353853 1.160446 3.0945209 0.338462 1.740669 0.338462 3.626391v14.698976z"
       stroke-width="6.60132"
       id="path3" />
    <path
       d="m53.231917 34.117451q-2.777783 0-5.121535-1.388891-2.343755-1.388891-3.732646-3.732642-1.388891-2.343756-1.388891-5.121537 0-2.86459 1.388891-5.121536 1.388891-2.343755 3.732646-3.732646 2.343752-1.388891 5.121535-1.388891 2.951391 0 5.208341 1.388891 2.343754 1.388891 3.732645 3.732646 1.388892 2.256946 1.388892 5.121536 0 2.777781-1.388892 5.121537-1.388891 2.343751-3.732645 3.732642-2.25695 1.388891-5.208341 1.388891z"
       fill="url(#radialGradient12)"
       stroke-width="11.8513"
       id="path4" />
    <path
       d="m53.251144 29.579902q-1.547261 0-2.852761-0.77363-1.305502-0.77363-2.079132-2.07913-0.77363-1.305502-0.77363-2.852762 0-1.595613 0.77363-2.852761 0.77363-1.305502 2.079132-2.079132 1.3055-0.77363 2.852761-0.77363 1.643963 0 2.901113 0.77363 1.305501 0.77363 2.079131 2.079132 0.773631 1.257148 0.773631 2.852761 0 1.54726-0.773631 2.852762-0.77363 1.3055-2.079131 2.07913-1.25715 0.77363-2.901113 0.77363z"
       fill="#fff"
       stroke-width="6.60132"
       id="path5" />
    <path
       d="m11.539428 60.661162q-2.4234209 0-4.3248744-1.230352-1.9014535-1.267636-2.9826721-3.467356-1.0812186-2.199721-1.0812186-4.958693 0-2.796255 1.0812186-4.958692 1.118502-2.199721 3.0199555-3.430073 1.9387369-1.267636 4.362158-1.267636 2.348854 0 4.063891 1.043935 1.75232 1.043936 2.684405 3.206373 0.969368 2.125154 0.969368 5.406093 0 3.019956-1.006652 5.182393-0.969368 2.162437-2.721688 3.318223-1.75232 1.155785-4.063891 1.155785zm1.379486-6.599162q1.230352 0 2.087871-0.857518 0.894801-0.894802 0.894801-2.199721t-0.894801-2.199721q-0.857519-0.894801-2.087871-0.894801-1.193069 0-2.050587 0.894801-0.857518 0.894802-0.857518 2.199721t0.857518 2.199721q0.857518 0.857518 2.050587 0.857518zm4.399441 6.077194-1.752319-5.406093h0.33555v-7.121129h-0.33555v-12.862774h6.748295v25.389996zm16.069229 0.335551q-2.796255 0-4.884126-1.155785-2.08787-1.155786-3.243656-3.28094-1.155785-2.125154-1.155785-5.033259 0-2.796255 1.155785-4.958692 1.155786-2.199721 3.243656-3.430073 2.087871-1.267636 4.884126-1.267636 2.908105 0 4.958692 1.342203 2.087871 1.304919 3.206373 3.467356t1.118502 4.734992q0 0.671101-0.03728 1.230352t-0.11185 0.857518h-13.645729v-4.362158h8.351482l-0.335551 1.118502q0-1.454052-0.857518-2.348854-0.820235-0.894801-2.572554-0.894801-1.603187 0-2.572555 0.932085-0.932085 0.894801-0.932085 2.460704v2.087871q0 1.715036 1.043935 2.609838 1.081219 0.894801 2.945389 0.894801 1.416769 0 2.274287-0.521967 0.894802-0.559251 1.491336-1.379486l4.362158 2.274287q-1.118502 2.087871-3.430073 3.355506-2.274287 1.267636-5.256959 1.267636zm29.155608-18.604417-6.300895 18.268866h-6.561879l-6.673729-18.268866h6.748296l4.324874 13.645725h-2.237004l4.138458-13.645725z"
       fill="#2b4599"
       fill-opacity=".614224"
       stroke="#9426ff"
       stroke-width=".39"
       aria-label="dev"
       id="path6" />
    <path
       d="m10.181973 59.303706q-2.4234214 0-4.3248749-1.230352-1.9014535-1.267636-2.9826721-3.467357-1.0812186-2.19972-1.0812186-4.958692 0-2.796255 1.0812186-4.958692 1.118502-2.199721 3.0199555-3.430073 1.9387369-1.267636 4.3621575-1.267636 2.348855 0 4.063891 1.043935 1.75232 1.043935 2.684405 3.206373 0.969369 2.125154 0.969369 5.406093 0 3.019955-1.006652 5.182393-0.969369 2.162437-2.721689 3.318222-1.752319 1.155786-4.06389 1.155786zm1.379486-6.599162q1.230352 0 2.08787-0.857518 0.894802-0.894802 0.894802-2.199721t-0.894802-2.199721q-0.857518-0.894801-2.08787-0.894801-1.193069 0-2.0505875 0.894801-0.8575183 0.894802-0.8575183 2.199721t0.8575183 2.199721q0.8575185 0.857518 2.0505875 0.857518zm4.399441 6.077194-1.75232-5.406093h0.335551v-7.12113h-0.335551v-12.862773h6.748296v25.389996zm16.069228 0.335551q-2.796255 0-4.884125-1.155786-2.087871-1.155785-3.243656-3.280939-1.155786-2.125154-1.155786-5.033259 0-2.796255 1.155786-4.958692 1.155785-2.199721 3.243656-3.430073 2.08787-1.267636 4.884125-1.267636 2.908106 0 4.958693 1.342202 2.08787 1.304919 3.206372 3.467357 1.118502 2.162437 1.118502 4.734992 0 0.671101-0.03728 1.230352t-0.11185 0.857518h-13.645728v-4.362158h8.351482l-0.335551 1.118502q0-1.454052-0.857518-2.348854-0.820235-0.894802-2.572555-0.894802-1.603186 0-2.572555 0.932085-0.932085 0.894802-0.932085 2.460705v2.08787q0 1.715037 1.043936 2.609838 1.081218 0.894802 2.945388 0.894802 1.416769 0 2.274288-0.521968 0.894801-0.559251 1.491336-1.379485l4.362158 2.274287q-1.118502 2.087871-3.430073 3.355506-2.274288 1.267636-5.25696 1.267636zm29.155608-18.604417-6.300895 18.268866h-6.561878l-6.673729-18.268866h6.748295l4.324875 13.645724h-2.237004l4.138457-13.645724z"
       fill="#9426ff"
       stroke-width="5.09016"
       aria-label="dev"
       id="path7" />
  </g>
</svg>
