<?xml version="1.0" encoding="UTF-8" standalone="no"?>
<!-- Created with Inkscape (http://www.inkscape.org/) -->

<svg
   width="1920"
   height="1080"
   version="1.1"
   viewBox="0 0 1920 1080"
   xml:space="preserve"
   id="svg3"
   sodipodi:docname="http_proxy_image.svg"
   inkscape:version="1.3.2 (091e20ef0f, 2023-11-25, custom)"
   xmlns:inkscape="http://www.inkscape.org/namespaces/inkscape"
   xmlns:sodipodi="http://sodipodi.sourceforge.net/DTD/sodipodi-0.dtd"
   xmlns:xlink="http://www.w3.org/1999/xlink"
   xmlns="http://www.w3.org/2000/svg"
   xmlns:svg="http://www.w3.org/2000/svg"><sodipodi:namedview
     id="namedview3"
     pagecolor="#ffffff"
     bordercolor="#cccccc"
     borderopacity="1"
     inkscape:showpageshadow="0"
     inkscape:pageopacity="1"
     inkscape:pagecheckerboard="0"
     inkscape:deskcolor="#d1d1d1"
     showgrid="false"
     inkscape:zoom="0.384375"
     inkscape:cx="759.6748"
     inkscape:cy="392.84553"
     inkscape:window-width="1920"
     inkscape:window-height="1008"
     inkscape:window-x="1920"
     inkscape:window-y="0"
     inkscape:window-maximized="1"
     inkscape:current-layer="svg3" /><defs
     id="defs2"><linearGradient
       id="linearGradient4"
       x1="1.46447"
       y1="4.29289"
       x2="9.24264"
       y2="5"
       gradientUnits="userSpaceOnUse"
       gradientTransform="matrix(62.932403,62.932403,-62.932403,62.932403,960.00004,-112.01701)"><stop
         offset="0"
         style="stop-color:#ff0044;stop-opacity:0.08126411;"
         id="stop3" /><stop
         offset="1"
         style="stop-color:#0022ff;stop-opacity:0.15801354;"
         id="stop4" /></linearGradient><radialGradient
       id="radialGradient2"
       cx="960"
       cy="540"
       r="960"
       gradientTransform="matrix(1 0 0 .5625 0 236.25)"
       gradientUnits="userSpaceOnUse"><stop
         stop-color="#644afa"
         offset="0"
         id="stop1"
         style="stop-color:#181141;stop-opacity:1;" /><stop
         stop-color="#34488f"
         offset="1"
         id="stop2"
         style="stop-color:#140a5d;stop-opacity:1;" /></radialGradient><linearGradient
       id="grad"
       x1="1.46447"
       y1="4.29289"
       x2="9.24264"
       y2="5"
       gradientUnits="userSpaceOnUse"
       gradientTransform="matrix(62.932403,62.932403,-62.932403,62.932403,960.00004,-112.01701)"><stop
         offset="0%"
         style="stop-color:#ff0044;"
         id="stop1-6" /><stop
         offset="100%"
         style="stop-color:#0022ff;"
         id="stop2-7" /></linearGradient><linearGradient
       id="linearGradient24"><stop
         stop-color="#1f00b6"
         offset="0"
         id="stop1-1" /><stop
         stop-color="#ef0059"
         offset="1"
         id="stop2-2" /></linearGradient><linearGradient
       id="linearGradient25"
       x1="94.136185"
       x2="93.951485"
       y1="44.326172"
       y2="122.20893"
       gradientUnits="userSpaceOnUse"
       xlink:href="#linearGradient24" /><linearGradient
       inkscape:collect="always"
       xlink:href="#linearGradient24"
       id="linearGradient8"
       gradientUnits="userSpaceOnUse"
       x1="46.296078"
       y1="2.3370597"
       x2="46.111378"
       y2="80.219772"
       gradientTransform="matrix(7.8879873,0,0,7.8879873,589.40601,197.29381)" /><filter
       inkscape:collect="always"
       style="color-interpolation-filters:sRGB"
       id="filter1"
       x="-0.028083372"
       y="-0.030462558"
       width="1.0561667"
       height="1.0609251"><feGaussianBlur
         inkscape:collect="always"
         stdDeviation="8.2224099"
         id="feGaussianBlur1" /></filter></defs><rect
     width="1920"
     height="1080"
     fill="url(#radialGradient2)"
     stroke-miterlimit="3.5"
     stroke-width="0"
     id="rect2" /><g
     id="g1"
     transform="matrix(1.1439841,0,0,1.1439841,-136.72633,-77.349179)"><path
       id="path1"
       d="m 912.80584,205.09778 -41.77316,30.10297 51.13224,70.92232 -0.023,51.23005 -52.57125,64.67756 39.51102,33.01748 85.22573,-103.74824 c 7.54648,-9.02609 8.01798,-22.01969 1.14146,-31.56633 z m -235.71208,38.29209 c -30.8344,1.01027 -59.03873,17.63182 -74.85988,44.11706 -25.6761,42.98505 -11.64375,98.64595 31.34197,124.32092 42.98426,25.67334 98.64201,11.64117 124.31686,-31.34211 25.67338,-42.98417 11.64124,-98.64203 -31.34197,-124.31688 -14.91998,-8.91204 -32.08726,-13.3478 -49.45698,-12.77899 z m 539.06124,0 c -30.8346,1.01015 -59.0389,17.63172 -74.8603,44.11706 -25.6761,42.98514 -11.6435,98.64608 31.3424,124.32092 42.9841,25.67327 98.642,11.64113 124.3169,-31.34211 25.674,-42.98309 11.6437,-98.64063 -31.338,-124.31688 -14.9212,-8.9128 -32.09,-13.3486 -49.461,-12.77899 z m -396.98835,62.51715 -0.0209,51.49502 51.49496,0.0244 0.023,-51.4991 z m 205.98025,0.0856 -0.031,51.49093 51.499,0.0209 0.031,-51.48686 z m -252.29832,127.04795 -44.21499,26.37728 26.38966,44.22303 44.21478,-26.38137 z m 360.89692,0 -26.3892,44.21894 44.2227,26.38951 26.3897,-44.21894 z m -87.2967,8.26659 -47.26726,20.43007 56.03946,129.73011 c 4.6696,10.79919 16.0668,17.06301 27.6862,15.21248 l 132.7747,-19.96945 -8.0872,-50.85096 -82.4828,11.9678 -43.9948,-26.255 z m -264.40018,80.78273 -56.0401,129.73418 47.2679,20.42602 34.66431,-80.26508 43.9948,-26.25092 82.48655,11.9678 8.0872,-50.85503 -132.77496,-19.96538 c -14.15486,-1.5571 -19.85162,-1.44628 -27.6857,15.20841 z m 96.35796,87.81832 -44.22313,26.38951 26.38967,44.22308 44.22291,-26.38958 z m 149.78902,0.0125 -26.3892,44.21896 44.2148,26.38142 26.3936,-44.22308 z m -76.28233,78.07983 c -50.06872,-8.5e-4 -90.65832,40.58668 -90.65957,90.65535 -8.4e-4,50.07019 40.58918,90.66044 90.65957,90.65941 50.06863,-0.002 90.65643,-40.59079 90.65533,-90.65941 0,-50.06701 -40.5883,-90.6541 -90.65533,-90.65535 z"
       style="fill:#000000;fill-opacity:1;stroke:#ffffff;stroke-width:1;stroke-linejoin:round;stroke-dasharray:none;stroke-opacity:1;filter:url(#filter1)"
       sodipodi:nodetypes="cccccccccccccscccccccccccccccccccccccccccccccccccccccccccccccccccccccccccc" /><path
       id="path2"
       d="m 912.80584,197.2929 -41.77316,30.10297 51.13224,70.92232 -0.023,51.23005 -52.57125,64.67756 39.51102,33.01748 85.22573,-103.74824 c 7.54648,-9.02609 8.01798,-22.01969 1.14146,-31.56633 z m -235.71208,38.29209 c -30.8344,1.01027 -59.03873,17.63182 -74.85988,44.11706 -25.6761,42.98505 -11.64375,98.64595 31.34197,124.32092 42.98426,25.67334 98.64201,11.64117 124.31686,-31.34211 25.67338,-42.98417 11.64124,-98.64203 -31.34197,-124.31688 -14.91998,-8.91204 -32.08726,-13.3478 -49.45698,-12.77899 z m 539.06124,0 c -30.8346,1.01015 -59.0389,17.63172 -74.8603,44.11706 -25.6761,42.98514 -11.6435,98.64608 31.3424,124.32092 42.9841,25.67327 98.642,11.64113 124.3169,-31.34211 25.674,-42.98309 11.6437,-98.64063 -31.338,-124.31688 -14.9212,-8.9128 -32.09,-13.3486 -49.461,-12.77899 z m -396.98835,62.51715 -0.0209,51.49502 51.49496,0.0244 0.023,-51.4991 z m 205.98025,0.0856 -0.031,51.49093 51.499,0.0209 0.031,-51.48686 z m -252.29832,127.04795 -44.21499,26.37728 26.38966,44.22303 44.21478,-26.38137 z m 360.89692,0 -26.3892,44.21894 44.2227,26.38951 26.3897,-44.21894 z m -87.2967,8.26659 -47.26726,20.43007 56.03946,129.73011 c 4.6696,10.79919 16.0668,17.06301 27.6862,15.21248 l 132.7747,-19.96945 -8.0872,-50.85096 -82.4828,11.9678 -43.9948,-26.255 z m -264.40018,80.78273 -56.0401,129.73418 47.2679,20.42602 34.66431,-80.26508 43.9948,-26.25092 82.48655,11.9678 8.0872,-50.85503 -132.77496,-19.96538 c -14.15486,-1.5571 -19.85162,-1.44628 -27.6857,15.20841 z m 96.35796,87.81832 -44.22313,26.38951 26.38967,44.22308 44.22291,-26.38958 z m 149.78902,0.0125 -26.3892,44.21896 44.2148,26.38142 26.3936,-44.22308 z m -76.28233,78.07983 c -50.06872,-8.5e-4 -90.65832,40.58668 -90.65957,90.65535 -8.4e-4,50.07019 40.58918,90.66044 90.65957,90.65941 50.06863,-0.002 90.65643,-40.59079 90.65533,-90.65941 0,-50.06701 -40.5883,-90.6541 -90.65533,-90.65535 z"
       style="fill:url(#linearGradient8);stroke:#ffffff;stroke-width:1;stroke-linejoin:round;stroke-dasharray:none;stroke-opacity:1"
       sodipodi:nodetypes="cccccccccccccscccccccccccccccccccccccccccccccccccccccccccccccccccccccccccc" /></g></svg>
