<?xml version="1.0" encoding="UTF-8" standalone="no"?>
<!-- Created with Inkscape (http://www.inkscape.org/) -->

<svg
   width="1920"
   height="1080"
   version="1.1"
   viewBox="0 0 1920 1080"
   xml:space="preserve"
   id="svg3"
   sodipodi:docname="pypi_default.svg"
   inkscape:version="1.3.2 (091e20ef0f, 2023-11-25, custom)"
   xmlns:inkscape="http://www.inkscape.org/namespaces/inkscape"
   xmlns:sodipodi="http://sodipodi.sourceforge.net/DTD/sodipodi-0.dtd"
   xmlns="http://www.w3.org/2000/svg"
   xmlns:svg="http://www.w3.org/2000/svg"><sodipodi:namedview
     id="namedview3"
     pagecolor="#ffffff"
     bordercolor="#cccccc"
     borderopacity="1"
     inkscape:showpageshadow="0"
     inkscape:pageopacity="1"
     inkscape:pagecheckerboard="0"
     inkscape:deskcolor="#d1d1d1"
     inkscape:zoom="0.13589708"
     inkscape:cx="956.60625"
     inkscape:cy="537.1712"
     inkscape:window-width="1536"
     inkscape:window-height="796"
     inkscape:window-x="0"
     inkscape:window-y="0"
     inkscape:window-maximized="1"
     inkscape:current-layer="svg3" /><defs
     id="defs2"><radialGradient
       id="radialGradient2"
       cx="960"
       cy="540"
       r="960"
       gradientTransform="matrix(1 0 0 .5625 0 236.25)"
       gradientUnits="userSpaceOnUse"><stop
         stop-color="#644afa"
         offset="0"
         id="stop1"
         style="stop-color:#5ef258;stop-opacity:1;" /><stop
         stop-color="#34488f"
         offset="1"
         id="stop2"
         style="stop-color:#348f38;stop-opacity:1;" /></radialGradient></defs><rect
     width="1920"
     height="1080"
     fill="url(#radialGradient2)"
     stroke-miterlimit="3.5"
     stroke-width="0"
     id="rect2" /><g
     id="g3"
     transform="matrix(8.7013019,0,0,8.7013019,482.24867,120.09269)"><path
       d="m 15.800229,37.158798 15.555,5.662 15.786,-5.746 -15.555,-5.662 z m 15.623,-12.783 15.556,5.662 15.785,-5.746 -15.555,-5.662 z"
       fill="#f7f7f4"
       stroke="#cccccc"
       stroke-width="0.355"
       stroke-linejoin="bevel"
       id="path1" /><path
       d="m 31.423229,24.375798 15.556,5.662 v 18.282 l -15.556,-5.661 z"
       fill="#efeeea"
       stroke="#cccccc"
       stroke-width="0.355"
       stroke-linejoin="bevel"
       id="path2" /><path
       d="m 0.17722943,61.302798 15.55499957,5.663 15.786,-5.746 -15.556,-5.662 z"
       fill="#f7f7f4"
       stroke="#cccccc"
       stroke-width="0.355"
       stroke-linejoin="bevel"
       id="path3" /><path
       d="m 0.17722943,61.302798 15.55499957,5.663 v 18.282 l -15.55499957,-5.661 z"
       fill="#efeeea"
       stroke="#cccccc"
       stroke-width="0.355"
       stroke-linejoin="bevel"
       id="path4" /><path
       d="m 0.17722943,35.302798 15.55499957,5.663 15.786,-5.746 -15.556,-5.662 z"
       fill="#f7f7f4"
       stroke="#cccccc"
       stroke-width="0.355"
       stroke-linejoin="bevel"
       id="path5" /><path
       d="m 15.732229,40.965798 v 18.282 l 15.786,-5.745 v -18.283 z"
       fill="#ffffff"
       stroke="#cccccc"
       stroke-width="0.355"
       stroke-linejoin="bevel"
       id="path6" /><path
       d="m 0.17722943,35.302798 15.55499957,5.663 v 18.282 l -15.55499957,-5.661 z"
       fill="#efeeea"
       stroke="#cccccc"
       stroke-width="0.355"
       stroke-linejoin="bevel"
       id="path7" /><path
       d="m 15.799229,66.984798 15.556,5.662 v 18.283 l -15.555,-5.662 z"
       fill="#efeeea"
       stroke="#cccccc"
       stroke-width="0.355"
       stroke-linejoin="bevel"
       id="path10" /><path
       d="m 15.799229,48.520798 15.556,5.662 15.786,-5.746 -15.555,-5.661 z"
       fill="#f7f7f4"
       stroke="#cccccc"
       stroke-width="0.355"
       stroke-linejoin="bevel"
       id="path11" /><path
       d="m 15.799229,48.520798 15.556,5.662 v 18.283 l -15.555,-5.662 z"
       fill="#efeeea"
       stroke="#cccccc"
       stroke-width="0.355"
       stroke-linejoin="bevel"
       id="path12" /><path
       d="m 93.849229,61.283798 v 18.283 l 15.785001,-5.745 v -18.283 z"
       fill="#ffffff"
       stroke="#cccccc"
       stroke-width="0.355"
       stroke-linejoin="bevel"
       id="path13" /><path
       d="m 78.225229,66.965798 v 18.282 l 15.786,-5.745 v -18.283 z"
       fill="#ffd242"
       stroke="#cccccc"
       stroke-width="0.355"
       stroke-linejoin="bevel"
       id="path14" /><path
       d="m 91.150229,71.422798 a 2.617,3.737 35 0 1 -3.032,4.33 2.617,3.737 35 0 1 -3.031,-2.122 2.617,3.737 35 0 1 3.031,-4.33 2.617,3.737 35 0 1 3.032,2.123 z"
       fill="#ffffff"
       id="path15" /><path
       d="m 62.602229,72.646798 v 18.283 l 15.786,-5.746 v -18.283 z"
       fill="#ffd242"
       stroke="#cccccc"
       stroke-width="0.355"
       stroke-linejoin="bevel"
       id="path16" /><path
       d="m 46.979229,78.327798 v 18.283 l 15.785,-5.746 v -18.282 z"
       fill="#ffffff"
       stroke="#cccccc"
       stroke-width="0.355"
       stroke-linejoin="bevel"
       id="path17" /><path
       d="m 31.423229,72.665798 15.556,5.662 v 18.283 l -15.556,-5.662 z"
       fill="#efeeea"
       stroke="#cccccc"
       stroke-width="0.355"
       stroke-linejoin="bevel"
       id="path18" /><path
       d="m 93.849229,42.820798 v 18.282 l 15.785001,-5.745 v -18.283 z"
       fill="#ffd242"
       stroke="#cccccc"
       stroke-width="0.355"
       stroke-linejoin="bevel"
       id="path19" /><path
       d="m 78.293229,18.694798 15.556,5.662 15.785001,-5.746 -15.555001,-5.662 z"
       fill="#ffc91d"
       stroke="#cccccc"
       stroke-width="0.355"
       stroke-linejoin="bevel"
       id="path20" /><path
       d="m 93.849229,24.356798 v 18.282 l 15.785001,-5.745 v -18.283 z m -15.624,24.145 v 18.282 l 15.786,-5.745 v -18.283 z"
       fill="#ffd242"
       stroke="#cccccc"
       stroke-width="0.355"
       stroke-linejoin="bevel"
       id="path21" /><path
       d="m 78.225229,30.037798 v 18.282 l 15.786,-5.745 v -18.283 z"
       fill="#3775a9"
       stroke="#cccccc"
       stroke-width="0.355"
       stroke-linejoin="bevel"
       id="path22" /><path
       d="m 62.670229,5.9117976 15.555,5.6620004 15.786,-5.7460004 -15.555,-5.66100001 z"
       fill="#2f6491"
       stroke="#cccccc"
       stroke-width="0.355"
       stroke-linejoin="bevel"
       id="path23" /><path
       d="m 78.225229,11.572798 v 18.283 l 15.786,-5.745 V 5.8277976 Z"
       fill="#3775a9"
       stroke="#cccccc"
       stroke-width="0.355"
       stroke-linejoin="bevel"
       id="path24" /><path
       d="m 62.602229,54.182798 v 18.283 l 15.786,-5.746 v -18.283 z"
       fill="#ffd242"
       stroke="#cccccc"
       stroke-width="0.355"
       stroke-linejoin="bevel"
       id="path25" /><path
       d="m 62.602229,35.718798 v 18.283 l 15.786,-5.746 v -18.283 z m -15.623,24.145 v 18.283 l 15.785,-5.746 v -18.282 z"
       fill="#3775a9"
       stroke="#cccccc"
       stroke-width="0.355"
       stroke-linejoin="bevel"
       id="path26" /><path
       d="m 31.423229,54.202798 15.556,5.661 v 18.283 l -15.556,-5.662 z m 0,-18.465 15.556,5.662 15.785,-5.745 -15.555,-5.662 z"
       fill="#2f6491"
       stroke="#cccccc"
       stroke-width="0.355"
       stroke-linejoin="bevel"
       id="path27" /><path
       d="m 46.979229,41.399798 v 18.283 l 15.785,-5.746 v -18.282 z"
       fill="#3775a9"
       stroke="#cccccc"
       stroke-width="0.355"
       stroke-linejoin="bevel"
       id="path28" /><path
       d="m 31.423229,35.737798 15.556,5.662 v 18.283 l -15.556,-5.662 z m 15.624,-24.145 15.555,5.662 15.786,-5.746 -15.556,-5.6610004 z"
       fill="#2f6491"
       stroke="#cccccc"
       stroke-width="0.355"
       stroke-linejoin="bevel"
       id="path29" /><path
       d="m 62.602229,17.254798 v 18.283 l 15.786,-5.746 v -18.283 z"
       fill="#3775a9"
       stroke="#cccccc"
       stroke-width="0.355"
       stroke-linejoin="bevel"
       id="path30" /><path
       d="m 47.047229,11.592798 15.555,5.662 v 18.283 l -15.555,-5.662 z"
       fill="#2f6491"
       stroke="#cccccc"
       stroke-width="0.355"
       stroke-linejoin="bevel"
       id="path31" /><path
       d="m 71.527229,23.126798 a 2.617,3.737 35 0 1 -3.032,4.33 2.617,3.737 35 0 1 -3.032,-2.123 2.617,3.737 35 0 1 3.032,-4.33 2.617,3.737 35 0 1 3.032,2.123 z"
       fill="#ffffff"
       id="path32" /></g></svg>
