<?xml version="1.0" encoding="UTF-8" standalone="no"?>
<!-- Created with Inkscape (http://www.inkscape.org/) -->

<svg
   width="1920"
   height="1080"
   version="1.1"
   viewBox="0 0 1920 1080"
   xml:space="preserve"
   id="svg3"
   sodipodi:docname="quip_image.svg"
   inkscape:version="1.3.2 (091e20ef0f, 2023-11-25, custom)"
   xmlns:inkscape="http://www.inkscape.org/namespaces/inkscape"
   xmlns:sodipodi="http://sodipodi.sourceforge.net/DTD/sodipodi-0.dtd"
   xmlns="http://www.w3.org/2000/svg"
   xmlns:svg="http://www.w3.org/2000/svg"><sodipodi:namedview
     id="namedview3"
     pagecolor="#ffffff"
     bordercolor="#cccccc"
     borderopacity="1"
     inkscape:showpageshadow="0"
     inkscape:pageopacity="1"
     inkscape:pagecheckerboard="0"
     inkscape:deskcolor="#d1d1d1"
     showgrid="false"
     inkscape:zoom="0.1921875"
     inkscape:cx="957.39837"
     inkscape:cy="541.13821"
     inkscape:window-width="1536"
     inkscape:window-height="796"
     inkscape:window-x="0"
     inkscape:window-y="0"
     inkscape:window-maximized="1"
     inkscape:current-layer="svg3" /><defs
     id="defs2"><linearGradient
       id="linearGradient4"
       x1="1.46447"
       y1="4.29289"
       x2="9.24264"
       y2="5"
       gradientUnits="userSpaceOnUse"
       gradientTransform="matrix(62.932403,62.932403,-62.932403,62.932403,960.00004,-112.01701)"><stop
         offset="0"
         style="stop-color:#ff0044;stop-opacity:0.08126411;"
         id="stop3" /><stop
         offset="1"
         style="stop-color:#0022ff;stop-opacity:0.15801354;"
         id="stop4" /></linearGradient><radialGradient
       id="radialGradient2"
       cx="960"
       cy="540"
       r="960"
       gradientTransform="matrix(1 0 0 .5625 0 236.25)"
       gradientUnits="userSpaceOnUse"><stop
         stop-color="#644afa"
         offset="0"
         id="stop1"
         style="stop-color:#131726;stop-opacity:1;" /><stop
         stop-color="#34488f"
         offset="1"
         id="stop2"
         style="stop-color:#3d0078;stop-opacity:1;" /></radialGradient><linearGradient
       id="grad"
       x1="1.46447"
       y1="4.29289"
       x2="9.24264"
       y2="5"
       gradientUnits="userSpaceOnUse"
       gradientTransform="matrix(62.932403,62.932403,-62.932403,62.932403,960.00004,-112.01701)"><stop
         offset="0%"
         style="stop-color:#ff0044;"
         id="stop1-6" /><stop
         offset="100%"
         style="stop-color:#0022ff;"
         id="stop2-7" /></linearGradient></defs><rect
     width="1920"
     height="1080"
     fill="url(#radialGradient2)"
     stroke-miterlimit="3.5"
     stroke-width="0"
     id="rect2" /><path
     fill="url(#grad)"
     d="m 719.33273,402.50451 c 12.96025,-27.43289 30.5015,-52.4561 51.87009,-73.99469 104.2698,-104.26987 273.32458,-104.26987 377.59438,0 104.2696,104.2698 104.2696,273.32454 0,377.59441 l 62.9325,62.93235 c 139.0263,-139.0264 139.0263,-364.43279 0,-503.45919 -139.0265,-139.02647 -364.43284,-139.02647 -503.45931,0 -139.0264,139.0264 -139.0264,364.43279 0,503.45919 89.93373,89.44118 220.66263,124.27725 343.17831,91.44868 l 34.4161,34.41617 c 34.7566,34.7566 91.1083,34.7566 125.8649,0 M 1085.8648,391.44217 c -69.5132,-69.5132 -182.21636,-69.5132 -251.72956,0 L 1085.8648,643.1718 c 69.5132,-69.5132 69.5132,-182.21643 0,-251.72963 z M 694.1352,503.17176 974.13522,783.17185 C 898.62948,787.38036 824.88051,759.37273 771.20282,706.10423 717.93425,652.42647 689.92669,578.67757 694.1352,503.17176 Z"
     id="path2"
     style="fill:url(#grad);stroke-width:88.9999" /></svg>
