<svg xmlns="http://www.w3.org/2000/svg" width="128" height="128" version="1.1" viewBox="0 0 10 10">
 <defs>
  <linearGradient id="grad" x1="1.46447" y1="4.29289" x2="9.24264" y2="5" gradientUnits="userSpaceOnUse">
   <stop offset="0%" style="stop-color:#ff0044;"/>
   <stop offset="100%" style="stop-color:#0022ff;"/>
  </linearGradient>
 </defs>
 <path transform="translate(0 -0.1) rotate(45 5 5)" fill="url(#grad)" d="m2.1757812 6c-0.1149852-0.3209248-0.1744301-0.6591004-0.1757812-1 0-1.6568542 1.3431458-3 3-3s3 1.3431458 3 3h1c0-2.209139-1.790861-4-4-4s-4 1.790861-4 4 1.790861 4 4 4c1.4251392-0.0039139 2.7405581-0.7657855 3.453125-2h0.546875c0.5522847 0 1-0.4477153 1-1m-5-3c-1.1045695 0-2 0.8954305-2 2h4c0-1.1045695-0.8954305-2-2-2zm-2.2246094 4h4.4492188c-0.566459 0.6333329-1.3749178 0.996749-2.2246094 1-0.8496916-0.003251-1.6581504-0.3666671-2.2246094-1z"/>
</svg>
