<?xml version="1.0" encoding="UTF-8" standalone="no"?>
<!-- Created with Inkscape (http://www.inkscape.org/) -->
<svg width="32mm" height="32mm" viewBox="0 0 32 32" version="1.1" id="svg22" inkscape:version="1.1.2 (0a00cf5339, 2022-02-04, custom)" sodipodi:docname="favicon.svg" xmlns:inkscape="http://www.inkscape.org/namespaces/inkscape" xmlns:sodipodi="http://sodipodi.sourceforge.net/DTD/sodipodi-0.dtd" xmlns="http://www.w3.org/2000/svg" xmlns:svg="http://www.w3.org/2000/svg">
  <sodipodi:namedview id="namedview24" pagecolor="#ffffff" bordercolor="#666666" borderopacity="1.0" inkscape:pageshadow="2" inkscape:pageopacity="0.0" inkscape:pagecheckerboard="0" inkscape:document-units="mm" showgrid="false" inkscape:zoom="2.8284093" inkscape:cx="-29.521894" inkscape:cy="76.014459" inkscape:window-width="1920" inkscape:window-height="1057" inkscape:window-x="-8" inkscape:window-y="-8" inkscape:window-maximized="1" inkscape:current-layer="layer1" showborder="false"/>
  <defs id="defs19"/>
  <g inkscape:groupmode="layer" id="layer4" inkscape:label="Ebene 2"/>
  <g inkscape:label="Ebene 1" inkscape:groupmode="layer" id="layer1">
    <path id="path12482" style="display:inline;fill:#19337c;fill-opacity:1;stroke:none;stroke-width:0.149663px;stroke-linecap:butt;stroke-linejoin:miter;stroke-opacity:1" d="M 1.9358692,0.15818855 C 0.99709122,0.1973913 0.38641722,0.62071808 0.28924622,1.5725815 -0.21612078,6.5230676 9.8180612,18.49261 15.43826,23.397273 21.05846,28.301933 31.272244,34.87525 31.680324,29.965748 32.137259,24.468478 20.285898,11.908047 16.097819,7.9076538 12.825882,4.7823465 5.2886462,0.01817388 1.9358692,0.15818855 Z m 3.3709,2.56977075 C 7.3676252,2.8006017 11.083632,5.0955095 16.112498,9.518778 23.775533,16.259002 28.853652,22.715004 28.488515,27.107865 28.16242,31.031039 22.871757,28.077864 15.585497,21.896738 11.088683,18.081973 3.0760412,8.4125856 3.4798802,4.4566577 3.6018992,3.2613784 4.2272732,2.6899058 5.3067692,2.7279593 Z"/>
    <path id="path1004" style="display:inline;fill:#19337c;fill-opacity:1;stroke:none;stroke-width:0.149663px;stroke-linecap:butt;stroke-linejoin:miter;stroke-opacity:1" d="M 30.028169,0.15818855 C 30.966947,0.1973913 31.577621,0.62071808 31.674792,1.5725815 32.180159,6.5230676 22.145977,18.49261 16.525778,23.397273 10.905578,28.301933 0.6917938,34.87525 0.2837138,29.965748 -0.1732212,24.468478 11.67814,11.908047 15.866219,7.9076538 19.138156,4.7823465 26.675392,0.01817388 30.028169,0.15818855 Z m -3.3709,2.56977075 C 24.596413,2.8006017 20.880406,5.0955095 15.85154,9.518778 8.1885048,16.259002 3.1103858,22.715004 3.4755228,27.107865 3.8016178,31.031039 9.0922808,28.077864 16.378541,21.896738 20.875355,18.081973 28.887997,8.4125856 28.484158,4.4566577 28.362139,3.2613784 27.736765,2.6899058 26.657269,2.7279593 Z"/>
    <text xml:space="preserve" style="font-style:normal;font-weight:normal;font-size:19.0086px;line-height:1.25;font-family:sans-serif;fill:#ffffff;fill-opacity:1;stroke:#000000;stroke-width:5.177;stroke-linecap:round;stroke-linejoin:round;stroke-miterlimit:4;stroke-dasharray:none;stroke-opacity:1;paint-order:stroke fill markers" x="3.336643" y="23.163536" id="text14092"><tspan sodipodi:role="line" id="tspan14090" style="font-style:normal;font-variant:normal;font-weight:normal;font-stretch:normal;font-family:Impact;-inkscape-font-specification:Impact;fill:#ffffff;fill-opacity:1;stroke:#000000;stroke-width:5.177;stroke-linecap:round;stroke-linejoin:round;stroke-miterlimit:4;stroke-dasharray:none;stroke-opacity:1;paint-order:stroke fill markers" x="3.336643" y="23.163536">SW</tspan></text>
    <text xml:space="preserve" style="font-style:normal;font-weight:normal;font-size:19.0086px;line-height:1.25;font-family:sans-serif;fill:#ffffff;fill-opacity:1;stroke:#000000;stroke-width:0;stroke-linecap:round;stroke-linejoin:round;stroke-miterlimit:4;stroke-dasharray:none;stroke-opacity:1;paint-order:stroke fill markers" x="3.336643" y="23.163536" id="text17945"><tspan sodipodi:role="line" id="tspan17943" style="font-style:normal;font-variant:normal;font-weight:normal;font-stretch:normal;font-family:Impact;-inkscape-font-specification:Impact;fill:#ffffff;fill-opacity:1;stroke:#000000;stroke-width:0;stroke-linecap:round;stroke-linejoin:round;stroke-miterlimit:4;stroke-dasharray:none;stroke-opacity:1;paint-order:stroke fill markers" x="3.336643" y="23.163536">S<tspan style="fill:#7fb6f3;fill-opacity:1" id="tspan22553">W</tspan></tspan></text>
  </g>
</svg>