<?xml version="1.0" encoding="UTF-8" standalone="no"?>
<!-- Created with Inkscape (http://www.inkscape.org/) -->

<svg
   width="1920"
   height="1080"
   version="1.1"
   viewBox="0 0 1920 1080"
   xml:space="preserve"
   id="svg3"
   sodipodi:docname="tgpu_image.svg"
   inkscape:version="1.3.2 (091e20ef0f, 2023-11-25, custom)"
   xmlns:inkscape="http://www.inkscape.org/namespaces/inkscape"
   xmlns:sodipodi="http://sodipodi.sourceforge.net/DTD/sodipodi-0.dtd"
   xmlns:xlink="http://www.w3.org/1999/xlink"
   xmlns="http://www.w3.org/2000/svg"
   xmlns:svg="http://www.w3.org/2000/svg"><sodipodi:namedview
     id="namedview3"
     pagecolor="#ffffff"
     bordercolor="#cccccc"
     borderopacity="1"
     inkscape:showpageshadow="0"
     inkscape:pageopacity="1"
     inkscape:pagecheckerboard="0"
     inkscape:deskcolor="#d1d1d1"
     showgrid="false"
     inkscape:zoom="0.384375"
     inkscape:cx="957.39837"
     inkscape:cy="541.13821"
     inkscape:window-width="1536"
     inkscape:window-height="796"
     inkscape:window-x="0"
     inkscape:window-y="0"
     inkscape:window-maximized="1"
     inkscape:current-layer="svg3" /><defs
     id="defs2"><linearGradient
       id="linearGradient4"
       x1="1.46447"
       y1="4.29289"
       x2="9.24264"
       y2="5"
       gradientUnits="userSpaceOnUse"
       gradientTransform="matrix(62.932403,62.932403,-62.932403,62.932403,960.00004,-112.01701)"><stop
         offset="0"
         style="stop-color:#ff0044;stop-opacity:0.08126411;"
         id="stop3" /><stop
         offset="1"
         style="stop-color:#0022ff;stop-opacity:0.15801354;"
         id="stop4" /></linearGradient><radialGradient
       id="radialGradient2"
       cx="960"
       cy="540"
       r="960"
       gradientTransform="matrix(1 0 0 .5625 0 236.25)"
       gradientUnits="userSpaceOnUse"><stop
         stop-color="#644afa"
         offset="0"
         id="stop1"
         style="stop-color:#6c82d4;stop-opacity:1;" /><stop
         stop-color="#34488f"
         offset="1"
         id="stop2"
         style="stop-color:#48008f;stop-opacity:1;" /></radialGradient><linearGradient
       id="grad"
       x1="1.46447"
       y1="4.29289"
       x2="9.24264"
       y2="5"
       gradientUnits="userSpaceOnUse"
       gradientTransform="matrix(62.932403,62.932403,-62.932403,62.932403,960.00004,-112.01701)"><stop
         offset="0%"
         style="stop-color:#ff0044;"
         id="stop1-6" /><stop
         offset="100%"
         style="stop-color:#0022ff;"
         id="stop2-7" /></linearGradient><linearGradient
       id="linearGradient18"
       inkscape:collect="always"><stop
         style="stop-color:#000000;stop-opacity:1;"
         offset="0"
         id="stop19" /><stop
         style="stop-color:#26215a;stop-opacity:1;"
         offset="1"
         id="stop20" /></linearGradient><radialGradient
       inkscape:collect="always"
       xlink:href="#linearGradient18"
       id="radialGradient20"
       cx="46.258793"
       cy="152.84804"
       fx="46.258793"
       fy="152.84804"
       r="84.514599"
       gradientTransform="matrix(1.6999052,0.35408311,-0.10211706,0.49025027,-16.768381,48.130181)"
       gradientUnits="userSpaceOnUse" /></defs><rect
     width="1920"
     height="1080"
     fill="url(#radialGradient2)"
     stroke-miterlimit="3.5"
     stroke-width="0"
     id="rect2" /><g
     inkscape:label="Layer 1"
     id="layer1"
     transform="matrix(6.24038,0,0,6.24038,367.47348,-257.30707)"><path
       style="fill:#0000ff;fill-opacity:1;stroke:none;stroke-width:0;stroke-linecap:round;stroke-linejoin:round;stroke-dasharray:none"
       d="m 120.74866,170.7798 61.00426,-23.94384 V 85.116566"
       id="path1"
       sodipodi:nodetypes="ccc" /><path
       style="fill:#00ff00;fill-opacity:1;stroke:none;stroke-width:0;stroke-linecap:round;stroke-linejoin:round;stroke-dasharray:none"
       d="M 81.518834,87.412787 120.86769,170.66313 152.41771,126.4106"
       id="path2"
       sodipodi:nodetypes="ccc" /><path
       style="fill:#ff0000;fill-opacity:1;stroke:none;stroke-width:0;stroke-linecap:round;stroke-linejoin:round;stroke-dasharray:none"
       d="M 7.3140585,156.7736 103.74577,134.21966 81.662211,87.53103"
       id="path3"
       sodipodi:nodetypes="ccc" /><path
       d="m 28.646553,148.32506 q -5.57335,0 -8.882527,-3.2221 -3.222093,-3.30917 -3.222093,-10.18878 v -29.34717 -0.5225 l 1.654588,-9.579199 h 7.053772 v 39.623039 q 0,2.43834 1.21917,3.65751 1.306254,1.21917 3.222094,1.21917 1.480421,0 2.612508,-0.17417 1.132087,-0.17416 2.002923,-0.43541 v 8.09877 q -1.132087,0.34834 -2.525425,0.60959 -1.306254,0.26125 -3.13501,0.26125 z M 10.010662,113.0562 v -8.01169 h 24.296326 v 8.01169 z m 52.075909,51.72766 q -3.657511,0 -6.966688,-1.045 -3.222093,-0.95792 -5.921685,-3.2221 -2.612508,-2.26417 -4.702515,-6.00877 l -0.609585,-1.13208 6.879605,-3.7446 q 2.264174,3.7446 4.789598,5.57335 2.612508,1.91584 6.53127,1.91584 5.3121,0 8.360026,-3.30918 3.13501,-3.30917 3.13501,-10.18878 v -9.05669 h 0.870836 V 113.5787 h -0.870836 l 2.090006,-8.53419 h 6.618354 v 37.1847 q 0,7.48919 -2.699592,12.54003 -2.612508,5.05085 -7.140855,7.48919 -4.528347,2.52543 -10.362949,2.52543 z M 61.041568,144.9288 q -5.921685,0 -10.450032,-2.52543 -4.441264,-2.52542 -6.966689,-7.05377 -2.43834,-4.61543 -2.43834,-10.71128 0,-6.18294 2.43834,-10.71129 2.525425,-4.61543 6.966689,-7.14085 4.528347,-2.61251 10.450032,-2.61251 5.660434,0 9.840447,2.61251 4.267097,2.52542 6.618354,7.14085 2.351257,4.52835 2.351257,10.71129 0,6.09585 -2.351257,10.71128 -2.351257,4.52835 -6.618354,7.05377 -4.180013,2.52543 -9.840447,2.52543 z m 1.045003,-7.48919 q 5.399184,0 8.621277,-3.48335 3.309177,-3.57042 3.309177,-9.40503 0,-5.8346 -3.309177,-9.31794 -3.222093,-3.57043 -8.621277,-3.57043 -5.399183,0 -8.70836,3.57043 -3.309177,3.57043 -3.309177,9.40503 0,5.74752 3.309177,9.31794 3.309177,3.48335 8.70836,3.48335 z m 52.859819,10.97253 q -5.74752,0 -10.01462,-2.69959 -4.26709,-2.78668 -6.705434,-7.75044 -2.351257,-4.96377 -2.351257,-11.58212 0,-6.70544 2.351257,-11.6692 2.438344,-4.96377 6.705434,-7.75044 4.2671,-2.78668 10.01462,-2.78668 5.92168,0 10.27586,2.78668 4.44127,2.78667 6.87961,7.75044 2.43834,4.96376 2.43834,11.6692 0,6.61835 -2.43834,11.58212 -2.43834,4.96376 -6.87961,7.75044 -4.35418,2.69959 -10.27586,2.69959 z m -21.509652,15.67505 v -59.04268 h 6.618352 l 2.09001,8.53419 h -0.87084 v 24.20924 h 0.87084 v 26.29925 z m 20.203392,-23.16424 q 5.39919,0 8.70836,-4.00584 3.30918,-4.00585 3.30918,-10.53712 0,-6.61835 -3.30918,-10.6242 -3.30917,-4.09293 -8.70836,-4.09293 -5.3121,0 -8.62127,4.00585 -3.30918,4.00584 -3.30918,10.6242 0,6.61835 3.30918,10.6242 3.30917,4.00584 8.62127,4.00584 z m 41.97424,7.48919 q -4.78959,0 -7.57627,-1.48042 -2.78667,-1.5675 -4.09293,-4.09293 -1.30625,-2.61251 -1.74167,-5.8346 -0.34833,-3.22209 -0.34833,-6.61835 v -25.34133 h 8.70836 v 27.17008 q 0,4.52835 2.00292,6.09585 2.09,1.56751 4.87668,1.56751 2.87376,0 5.66043,-1.13209 2.87376,-1.13209 5.13794,-3.04792 2.35125,-2.00293 3.48334,-4.2671 v 4.87668 h -1.39334 v -31.26301 h 8.70836 v 42.4968 h -6.61835 l -1.82876,-7.48919 2.17709,-0.26126 q -2.26417,2.6996 -5.05084,4.70252 -2.78668,1.91584 -5.83461,2.96084 -3.04792,0.95792 -6.27002,0.95792 z"
       id="text1"
       style="font-size:87.0836px;line-height:1.2;font-family:Gabarito;-inkscape-font-specification:Gabarito;white-space:pre;fill:url(#radialGradient20);fill-opacity:1;stroke:none;stroke-width:1;stroke-linecap:round;stroke-linejoin:round;stroke-dasharray:none;stroke-opacity:1"
       aria-label="tgpu" /></g></svg>
