<?xml version="1.0" encoding="UTF-8" standalone="no"?>
<!-- Created with Inkscape (http://www.inkscape.org/) -->

<svg
   width="1920"
   height="1080"
   version="1.1"
   viewBox="0 0 1920 1080"
   xml:space="preserve"
   id="svg3"
   sodipodi:docname="tshapes_image.svg"
   inkscape:version="1.3.2 (091e20ef0f, 2023-11-25, custom)"
   xmlns:inkscape="http://www.inkscape.org/namespaces/inkscape"
   xmlns:sodipodi="http://sodipodi.sourceforge.net/DTD/sodipodi-0.dtd"
   xmlns:xlink="http://www.w3.org/1999/xlink"
   xmlns="http://www.w3.org/2000/svg"
   xmlns:svg="http://www.w3.org/2000/svg"><sodipodi:namedview
     id="namedview3"
     pagecolor="#ffffff"
     bordercolor="#cccccc"
     borderopacity="1"
     inkscape:showpageshadow="0"
     inkscape:pageopacity="1"
     inkscape:pagecheckerboard="0"
     inkscape:deskcolor="#d1d1d1"
     showgrid="false"
     inkscape:zoom="0.384375"
     inkscape:cx="542.43902"
     inkscape:cy="280.97561"
     inkscape:window-width="1920"
     inkscape:window-height="1008"
     inkscape:window-x="1920"
     inkscape:window-y="0"
     inkscape:window-maximized="1"
     inkscape:current-layer="svg3" /><defs
     id="defs2"><linearGradient
       id="linearGradient4"
       x1="1.46447"
       y1="4.29289"
       x2="9.24264"
       y2="5"
       gradientUnits="userSpaceOnUse"
       gradientTransform="matrix(62.932403,62.932403,-62.932403,62.932403,960.00004,-112.01701)"><stop
         offset="0"
         style="stop-color:#ff0044;stop-opacity:0.08126411;"
         id="stop3" /><stop
         offset="1"
         style="stop-color:#0022ff;stop-opacity:0.15801354;"
         id="stop4" /></linearGradient><radialGradient
       id="radialGradient2"
       cx="960"
       cy="540"
       r="960"
       gradientTransform="matrix(1 0 0 .5625 0 236.25)"
       gradientUnits="userSpaceOnUse"><stop
         stop-color="#644afa"
         offset="0"
         id="stop1"
         style="stop-color:#6c82d4;stop-opacity:1;" /><stop
         stop-color="#34488f"
         offset="1"
         id="stop2"
         style="stop-color:#48008f;stop-opacity:1;" /></radialGradient><linearGradient
       id="grad"
       x1="1.46447"
       y1="4.29289"
       x2="9.24264"
       y2="5"
       gradientUnits="userSpaceOnUse"
       gradientTransform="matrix(62.932403,62.932403,-62.932403,62.932403,960.00004,-112.01701)"><stop
         offset="0%"
         style="stop-color:#ff0044;"
         id="stop1-6" /><stop
         offset="100%"
         style="stop-color:#0022ff;"
         id="stop2-7" /></linearGradient><linearGradient
       id="linearGradient24"
       inkscape:collect="always"><stop
         style="stop-color:#0b0d19;stop-opacity:1;"
         offset="0"
         id="stop24" /><stop
         style="stop-color:#1f0080;stop-opacity:1;"
         offset="1"
         id="stop25" /></linearGradient><linearGradient
       id="linearGradient22"
       inkscape:collect="always"><stop
         style="stop-color:#929292;stop-opacity:1;"
         offset="0"
         id="stop22" /><stop
         style="stop-color:#6f6f6f;stop-opacity:0;"
         offset="1"
         id="stop23" /></linearGradient><linearGradient
       inkscape:collect="always"
       xlink:href="#linearGradient22"
       id="linearGradient23"
       x1="117.52455"
       y1="95.900055"
       x2="98.990028"
       y2="55.819828"
       gradientUnits="userSpaceOnUse" /><linearGradient
       inkscape:collect="always"
       xlink:href="#linearGradient24"
       id="linearGradient25"
       x1="56.124237"
       y1="130.99026"
       x2="58.581264"
       y2="111.08599"
       gradientUnits="userSpaceOnUse" /></defs><rect
     width="1920"
     height="1080"
     fill="url(#radialGradient2)"
     stroke-miterlimit="3.5"
     stroke-width="0"
     id="rect2" /><g
     inkscape:label="Layer 1"
     id="layer1"
     transform="matrix(11.174156,0,0,11.174156,-266.74274,-336.9289)"><path
       d="M 82.616,108.26269 70.28962,94.522186 62.184769,117.95617 Z"
       style="fill:#0fff00;fill-opacity:1;stroke-width:4.23;stroke-linejoin:round"
       id="path21"
       sodipodi:nodetypes="cccc" /><path
       d="M 86.321516,70.658119 82.616,108.262 161.97324,70.608867 Z"
       style="fill:url(#linearGradient23);stroke-width:4.23;stroke-linejoin:round"
       id="path20"
       sodipodi:nodetypes="cccc" /><path
       d="m 89.421098,39.20417 -10.88007,31.458992 7.780488,-0.005 z"
       style="fill:#ff0000;fill-opacity:1;stroke-width:4.23;stroke-linejoin:round"
       id="path19" /><path
       d="m 70.28962,94.522186 8.251408,-23.859024 -21.412071,0.01375 z"
       style="fill:#1900ff;fill-opacity:1;stroke-width:4.23;stroke-linejoin:round"
       id="path18" /><path
       d="m 21.442157,128.05049 q -1.908333,0 -3.041405,-1.10326 -1.103255,-1.13307 -1.103255,-3.48867 V 113.41 113.23109 l 0.566536,-3.27995 h 2.415234 v 13.56706 q 0,0.83489 0.417448,1.25234 0.447265,0.41745 1.103254,0.41745 0.506901,0 0.894531,-0.0596 0.387631,-0.0596 0.685807,-0.14909 v 2.77305 q -0.38763,0.11927 -0.864713,0.20872 -0.447265,0.0895 -1.073437,0.0895 z m -6.380988,-12.07617 v -2.74323 h 8.319138 v 2.74323 z m 16.369895,12.10598 q -1.520703,0 -3.011588,-0.71562 -1.461067,-0.71563 -2.415233,-2.44505 l 2.266145,-1.49089 q 0.834895,1.10326 1.580338,1.61016 0.745442,0.47708 1.93815,0.47708 0.954167,0 1.461068,-0.47708 0.536718,-0.5069 0.536718,-1.22253 0,-0.47708 -0.268359,-0.83489 -0.238542,-0.35781 -0.864713,-0.65599 -0.626172,-0.328 -1.789062,-0.62617 -2.146875,-0.56654 -3.309765,-1.49089 -1.16289,-0.92435 -1.16289,-2.92213 0,-1.19271 0.596354,-2.17669 0.596354,-0.98399 1.729426,-1.58034 1.133073,-0.59636 2.683593,-0.59636 1.848698,0 3.160676,0.77526 1.311979,0.74545 2.057422,1.78907 l -2.295963,1.6996 q -0.417448,-0.53671 -1.222526,-1.04362 -0.805078,-0.53671 -2.027603,-0.53671 -0.745443,0 -1.371615,0.41744 -0.626171,0.41745 -0.626171,1.16289 0,0.74545 0.566536,1.22253 0.596354,0.44727 2.146874,0.80508 2.623958,0.62617 3.727213,1.63997 1.103255,0.98399 1.103255,2.62396 0,1.43125 -0.745443,2.47487 -0.715625,1.0138 -1.908333,1.58034 -1.16289,0.53671 -2.534504,0.53671 z m 8.229662,-0.29817 v -20.30586 h 2.981769 v 20.30586 z m 9.750387,0 v -9.30312 q 0,-1.55053 -0.715625,-2.08724 -0.685807,-0.53672 -1.639973,-0.53672 -0.954166,0 -1.93815,0.38763 -0.983985,0.38763 -1.759245,1.04362 -0.77526,0.65599 -1.192708,1.46106 L 41.8076,115.88487 q 0.834895,-0.95417 1.81888,-1.61016 0.983984,-0.65599 2.087239,-0.98398 1.103254,-0.35782 2.266145,-0.35782 1.55052,0 2.445051,0.53672 0.894531,0.5069 1.311979,1.40143 0.417448,0.86472 0.536718,1.96797 0.119271,1.10326 0.119271,2.26615 v 8.67695 z m 11.062409,0.41745 q -1.699609,0 -2.922135,-0.59636 -1.222525,-0.59635 -1.878515,-1.69961 -0.626171,-1.13307 -0.626171,-2.68359 0,-1.43125 0.655989,-2.53451 0.655989,-1.13307 1.878515,-1.78906 1.222526,-0.65599 2.892317,-0.65599 2.087239,0 3.339582,0.95417 1.282161,0.92435 1.789062,2.56432 h -1.669791 v -3.72721 q 0,-0.92435 -0.626172,-1.69961 -0.626171,-0.77526 -2.206509,-0.77526 -0.834896,0 -1.848698,0.20872 -0.983984,0.17891 -2.057421,0.65599 l -0.894531,-2.29596 q 1.222526,-0.59635 2.534505,-0.89453 1.311978,-0.29818 2.564322,-0.29818 1.878515,0 3.10104,0.68581 1.222526,0.68581 1.81888,1.8487 0.596354,1.13307 0.596354,2.56432 v 9.75039 h -2.146874 l -0.745443,-2.65378 1.580338,-0.44726 q -0.536718,1.75924 -1.908332,2.65377 -1.371615,0.86472 -3.220312,0.86472 z m 0.536719,-2.65378 q 1.311978,0 2.117056,-0.59635 0.805078,-0.62618 0.805078,-1.72943 0,-1.13307 -0.805078,-1.72943 -0.805078,-0.59635 -2.117056,-0.59635 -1.311979,0 -2.117057,0.59635 -0.805078,0.59636 -0.805078,1.72943 0,1.10325 0.805078,1.72943 0.805078,0.59635 2.117057,0.59635 z m 16.966289,2.5345 q -1.967969,0 -3.429036,-0.92434 -1.461067,-0.95417 -2.295963,-2.65378 -0.805078,-1.69961 -0.805078,-3.96575 0,-2.29597 0.805078,-3.99558 0.834896,-1.6996 2.295963,-2.65377 1.461067,-0.95417 3.429036,-0.95417 2.027603,0 3.518488,0.95417 1.520703,0.95417 2.355598,2.65377 0.834896,1.69961 0.834896,3.99558 0,2.26614 -0.834896,3.96575 -0.834895,1.69961 -2.355598,2.65378 -1.490885,0.92434 -3.518488,0.92434 z m -7.364972,5.36719 v -20.2164 h 2.266145 l 0.715625,2.92213 h -0.298177 v 8.28933 h 0.298177 v 9.00494 z m 6.917706,-7.93151 q 1.848698,0 2.98177,-1.37161 1.133073,-1.37162 1.133073,-3.60794 0,-2.26615 -1.133073,-3.63776 -1.133072,-1.40143 -2.98177,-1.40143 -1.818879,0 -2.951952,1.37161 -1.133073,1.37161 -1.133073,3.63776 0,2.26614 1.133073,3.63776 1.133073,1.37161 2.951952,1.37161 z m 15.713901,2.56432 q -2.117057,0 -3.727213,-0.92434 -1.610155,-0.95417 -2.504686,-2.65378 -0.894531,-1.69961 -0.894531,-3.96575 0,-2.29597 0.894531,-3.99558 0.894531,-1.6996 2.504686,-2.65377 1.610156,-0.95417 3.727213,-0.95417 2.146874,0 3.75703,0.95417 1.610156,0.95417 2.504687,2.65377 0.894528,1.69961 0.894528,3.99558 0,0.20872 -0.0298,0.44726 0,0.20873 -0.0298,0.38763 H 88.949416 V 118.807 h 9.243487 l -0.834896,1.72943 q 0,-2.26615 -1.013801,-3.72722 -1.013802,-1.46106 -3.101041,-1.46106 -1.848697,0 -2.951952,1.1927 -1.103255,1.16289 -1.103255,3.07123 v 1.55052 q 0,1.99778 1.073437,3.19049 1.073437,1.16289 2.98177,1.16289 1.759244,0 2.713411,-0.74544 0.954166,-0.74544 1.669791,-1.8487 l 2.236327,1.40143 q -1.013802,1.87852 -2.623957,2.83269 -1.580338,0.92434 -3.995572,0.92434 z m 14.312465,0 q -1.5207,0 -3.01158,-0.71562 -1.46107,-0.71563 -2.41524,-2.44505 l 2.26615,-1.49089 q 0.83489,1.10326 1.58034,1.61016 0.74544,0.47708 1.93815,0.47708 0.95416,0 1.46106,-0.47708 0.53672,-0.5069 0.53672,-1.22253 0,-0.47708 -0.26836,-0.83489 -0.23854,-0.35781 -0.86471,-0.65599 -0.62617,-0.328 -1.78906,-0.62617 -2.14688,-0.56654 -3.30977,-1.49089 -1.16289,-0.92435 -1.16289,-2.92213 0,-1.19271 0.59636,-2.17669 0.59635,-0.98399 1.72942,-1.58034 1.13308,-0.59636 2.6836,-0.59636 1.84869,0 3.16067,0.77526 1.31198,0.74545 2.05742,1.78907 l -2.29596,1.6996 q -0.41745,-0.53671 -1.22253,-1.04362 -0.80507,-0.53671 -2.0276,-0.53671 -0.74544,0 -1.37161,0.41744 -0.62617,0.41745 -0.62617,1.16289 0,0.74545 0.56653,1.22253 0.59636,0.44727 2.14688,0.80508 2.62395,0.62617 3.72721,1.63997 1.10325,0.98399 1.10325,2.62396 0,1.43125 -0.74544,2.47487 -0.71562,1.0138 -1.90833,1.58034 -1.16289,0.53671 -2.53451,0.53671 z"
       id="text22"
       style="font-size:29.8177px;line-height:1.2;font-family:Gabarito;-inkscape-font-specification:Gabarito;white-space:pre;fill:url(#linearGradient25);stroke-width:29.7942;stroke-linejoin:round"
       aria-label="tshapes"
       transform="rotate(-24.417506)" /></g></svg>
